<svg width="514" height="122" viewBox="0 0 514 122" fill="none" xmlns="http://www.w3.org/2000/svg">
<g filter="url(#filter0_d_251_196)">
<circle cx="260" cy="69" r="7" fill="white"/>
</g>
<line x1="12" y1="22.5" x2="193" y2="22.5" stroke="white" stroke-width="3"/>
<line x1="191.869" y1="21.777" x2="260.868" y2="70.777" stroke="white" stroke-width="3"/>
<path d="M10 0H86C99.2548 0 110 10.7452 110 24H10V0Z" fill="white"/>
<path d="M28.2074 10.1108H26.8778C26.8267 9.8267 26.7315 9.5767 26.5923 9.3608C26.4531 9.14489 26.2827 8.96165 26.081 8.81108C25.8793 8.66051 25.6534 8.54687 25.4034 8.47017C25.1563 8.39347 24.8935 8.35511 24.6151 8.35511C24.1122 8.35511 23.6619 8.48153 23.2642 8.73438C22.8693 8.98722 22.5568 9.35795 22.3267 9.84659C22.0994 10.3352 21.9858 10.9318 21.9858 11.6364C21.9858 12.3466 22.0994 12.946 22.3267 13.4347C22.5568 13.9233 22.8707 14.2926 23.2685 14.5426C23.6662 14.7926 24.1136 14.9176 24.6108 14.9176C24.8864 14.9176 25.1477 14.8807 25.3949 14.8068C25.6449 14.7301 25.8707 14.6179 26.0724 14.4702C26.2741 14.3224 26.4446 14.142 26.5838 13.929C26.7259 13.7131 26.8239 13.4659 26.8778 13.1875L28.2074 13.1918C28.1364 13.6207 27.9986 14.0156 27.794 14.3764C27.5923 14.7344 27.3324 15.044 27.0142 15.3054C26.6989 15.5639 26.3381 15.7642 25.9318 15.9062C25.5256 16.0483 25.0824 16.1193 24.6023 16.1193C23.8466 16.1193 23.1733 15.9403 22.5824 15.5824C21.9915 15.2216 21.5256 14.706 21.1847 14.0355C20.8466 13.3651 20.6776 12.5653 20.6776 11.6364C20.6776 10.7045 20.848 9.90483 21.1889 9.23722C21.5298 8.56676 21.9957 8.05256 22.5866 7.6946C23.1776 7.33381 23.8494 7.15341 24.6023 7.15341C25.0653 7.15341 25.4972 7.22017 25.8977 7.35369C26.3011 7.48437 26.6634 7.67756 26.9844 7.93324C27.3054 8.18608 27.571 8.49574 27.7812 8.86222C27.9915 9.22585 28.1335 9.64205 28.2074 10.1108ZM32.4379 16.1321C31.8242 16.1321 31.2887 15.9915 30.8313 15.7102C30.3739 15.429 30.0188 15.0355 29.766 14.5298C29.5131 14.0241 29.3867 13.4332 29.3867 12.7571C29.3867 12.0781 29.5131 11.4844 29.766 10.9759C30.0188 10.4673 30.3739 10.0724 30.8313 9.79119C31.2887 9.50994 31.8242 9.36932 32.4379 9.36932C33.0515 9.36932 33.587 9.50994 34.0444 9.79119C34.5018 10.0724 34.8569 10.4673 35.1097 10.9759C35.3626 11.4844 35.489 12.0781 35.489 12.7571C35.489 13.4332 35.3626 14.0241 35.1097 14.5298C34.8569 15.0355 34.5018 15.429 34.0444 15.7102C33.587 15.9915 33.0515 16.1321 32.4379 16.1321ZM32.4421 15.0625C32.8398 15.0625 33.1694 14.9574 33.4308 14.7472C33.6921 14.5369 33.8853 14.2571 34.0103 13.9077C34.1381 13.5582 34.2021 13.1733 34.2021 12.7528C34.2021 12.3352 34.1381 11.9517 34.0103 11.6023C33.8853 11.25 33.6921 10.9673 33.4308 10.7543C33.1694 10.5412 32.8398 10.4347 32.4421 10.4347C32.0415 10.4347 31.7092 10.5412 31.445 10.7543C31.1836 10.9673 30.989 11.25 30.8612 11.6023C30.7362 11.9517 30.6737 12.3352 30.6737 12.7528C30.6737 13.1733 30.7362 13.5582 30.8612 13.9077C30.989 14.2571 31.1836 14.5369 31.445 14.7472C31.7092 14.9574 32.0415 15.0625 32.4421 15.0625ZM39.9666 9.45455V10.4773H36.3913V9.45455H39.9666ZM37.3501 7.88636H38.6243V14.0781C38.6243 14.3253 38.6612 14.5114 38.7351 14.6364C38.8089 14.7585 38.9041 14.8423 39.0206 14.8878C39.1399 14.9304 39.2692 14.9517 39.4084 14.9517C39.5107 14.9517 39.6001 14.9446 39.6768 14.9304C39.7536 14.9162 39.8132 14.9048 39.8558 14.8963L40.0859 15.9489C40.0121 15.9773 39.907 16.0057 39.7706 16.0341C39.6342 16.0653 39.4638 16.0824 39.2592 16.0852C38.924 16.0909 38.6115 16.0312 38.3217 15.9062C38.032 15.7812 37.7976 15.5881 37.6186 15.3267C37.4396 15.0653 37.3501 14.7372 37.3501 14.3423V7.88636ZM44.0629 16.1321C43.4492 16.1321 42.9137 15.9915 42.4563 15.7102C41.9989 15.429 41.6438 15.0355 41.391 14.5298C41.1381 14.0241 41.0117 13.4332 41.0117 12.7571C41.0117 12.0781 41.1381 11.4844 41.391 10.9759C41.6438 10.4673 41.9989 10.0724 42.4563 9.79119C42.9137 9.50994 43.4492 9.36932 44.0629 9.36932C44.6765 9.36932 45.212 9.50994 45.6694 9.79119C46.1268 10.0724 46.4819 10.4673 46.7347 10.9759C46.9876 11.4844 47.114 12.0781 47.114 12.7571C47.114 13.4332 46.9876 14.0241 46.7347 14.5298C46.4819 15.0355 46.1268 15.429 45.6694 15.7102C45.212 15.9915 44.6765 16.1321 44.0629 16.1321ZM44.0671 15.0625C44.4648 15.0625 44.7944 14.9574 45.0558 14.7472C45.3171 14.5369 45.5103 14.2571 45.6353 13.9077C45.7631 13.5582 45.8271 13.1733 45.8271 12.7528C45.8271 12.3352 45.7631 11.9517 45.6353 11.6023C45.5103 11.25 45.3171 10.9673 45.0558 10.7543C44.7944 10.5412 44.4648 10.4347 44.0671 10.4347C43.6665 10.4347 43.3342 10.5412 43.07 10.7543C42.8086 10.9673 42.614 11.25 42.4862 11.6023C42.3612 11.9517 42.2987 12.3352 42.2987 12.7528C42.2987 13.1733 42.3612 13.5582 42.4862 13.9077C42.614 14.2571 42.8086 14.5369 43.07 14.7472C43.3342 14.9574 43.6665 15.0625 44.0671 15.0625ZM49.8104 12.1136V16H48.5362V9.45455H49.7592V10.5199H49.8402C49.9908 10.1733 50.2266 9.89489 50.5476 9.68466C50.8714 9.47443 51.2791 9.36932 51.7706 9.36932C52.2166 9.36932 52.6072 9.46307 52.9425 9.65057C53.2777 9.83523 53.5376 10.1108 53.7223 10.4773C53.907 10.8437 53.9993 11.2969 53.9993 11.8366V16H52.7251V11.9901C52.7251 11.5156 52.6016 11.1449 52.3544 10.8778C52.1072 10.608 51.7678 10.473 51.3359 10.473C51.0405 10.473 50.7777 10.5369 50.5476 10.6648C50.3203 10.7926 50.1399 10.9801 50.0064 11.2273C49.8757 11.4716 49.8104 11.767 49.8104 12.1136ZM58.4652 16.1321C57.8516 16.1321 57.3161 15.9915 56.8587 15.7102C56.4013 15.429 56.0462 15.0355 55.7933 14.5298C55.5405 14.0241 55.4141 13.4332 55.4141 12.7571C55.4141 12.0781 55.5405 11.4844 55.7933 10.9759C56.0462 10.4673 56.4013 10.0724 56.8587 9.79119C57.3161 9.50994 57.8516 9.36932 58.4652 9.36932C59.0788 9.36932 59.6143 9.50994 60.0717 9.79119C60.5291 10.0724 60.8842 10.4673 61.1371 10.9759C61.3899 11.4844 61.5163 12.0781 61.5163 12.7571C61.5163 13.4332 61.3899 14.0241 61.1371 14.5298C60.8842 15.0355 60.5291 15.429 60.0717 15.7102C59.6143 15.9915 59.0788 16.1321 58.4652 16.1321ZM58.4695 15.0625C58.8672 15.0625 59.1967 14.9574 59.4581 14.7472C59.7195 14.5369 59.9126 14.2571 60.0376 13.9077C60.1655 13.5582 60.2294 13.1733 60.2294 12.7528C60.2294 12.3352 60.1655 11.9517 60.0376 11.6023C59.9126 11.25 59.7195 10.9673 59.4581 10.7543C59.1967 10.5412 58.8672 10.4347 58.4695 10.4347C58.0689 10.4347 57.7365 10.5412 57.4723 10.7543C57.2109 10.9673 57.0163 11.25 56.8885 11.6023C56.7635 11.9517 56.701 12.3352 56.701 12.7528C56.701 13.1733 56.7635 13.5582 56.8885 13.9077C57.0163 14.2571 57.2109 14.5369 57.4723 14.7472C57.7365 14.9574 58.0689 15.0625 58.4695 15.0625ZM67.0849 13.2855V9.45455H68.3633V16H67.1104V14.8665H67.0423C66.8917 15.2159 66.6502 15.5071 66.3178 15.7401C65.9883 15.9702 65.5778 16.0852 65.0863 16.0852C64.6658 16.0852 64.2937 15.9929 63.9698 15.8082C63.6488 15.6207 63.396 15.3438 63.2113 14.9773C63.0295 14.6108 62.9386 14.1577 62.9386 13.6179V9.45455H64.2127V13.4645C64.2127 13.9105 64.3363 14.2656 64.5835 14.5298C64.8306 14.794 65.1516 14.9261 65.5465 14.9261C65.7852 14.9261 66.0224 14.8665 66.2582 14.7472C66.4968 14.6278 66.6942 14.4474 66.8505 14.206C67.0096 13.9645 67.0877 13.6577 67.0849 13.2855Z" fill="black"/>
<defs>
<filter id="filter0_d_251_196" x="242" y="51" width="36" height="36" filterUnits="userSpaceOnUse" color-interpolation-filters="sRGB">
<feFlood flood-opacity="0" result="BackgroundImageFix"/>
<feColorMatrix in="SourceAlpha" type="matrix" values="0 0 0 0 0 0 0 0 0 0 0 0 0 0 0 0 0 0 127 0" result="hardAlpha"/>
<feMorphology radius="5" operator="dilate" in="SourceAlpha" result="effect1_dropShadow_251_196"/>
<feOffset/>
<feGaussianBlur stdDeviation="3"/>
<feComposite in2="hardAlpha" operator="out"/>
<feColorMatrix type="matrix" values="0 0 0 0 1 0 0 0 0 1 0 0 0 0 1 0 0 0 1 0"/>
<feBlend mode="normal" in2="BackgroundImageFix" result="effect1_dropShadow_251_196"/>
<feBlend mode="normal" in="SourceGraphic" in2="effect1_dropShadow_251_196" result="shape"/>
</filter>
</defs>
</svg>
