<svg width="514" height="122" viewBox="0 0 514 122" fill="none" xmlns="http://www.w3.org/2000/svg">
<g filter="url(#filter0_d_251_196)">
<circle cx="260" cy="69" r="7" fill="white"/>
</g>
<line x1="12" y1="22.5" x2="193" y2="22.5" stroke="white" stroke-width="3"/>
<line x1="191.869" y1="21.777" x2="260.868" y2="70.777" stroke="white" stroke-width="3"/>
<path d="M10 0H86C99.2548 0 110 10.7452 110 24H10V0Z" fill="white"/>
<path d="M20.9588 16V7.27273H22.2756V14.8665H26.2301V16H20.9588ZM30.3871 16.1321C29.7734 16.1321 29.2379 15.9915 28.7805 15.7102C28.3232 15.429 27.968 15.0355 27.7152 14.5298C27.4624 14.0241 27.3359 13.4332 27.3359 12.7571C27.3359 12.0781 27.4624 11.4844 27.7152 10.9759C27.968 10.4673 28.3232 10.0724 28.7805 9.79119C29.2379 9.50994 29.7734 9.36932 30.3871 9.36932C31.0007 9.36932 31.5362 9.50994 31.9936 9.79119C32.451 10.0724 32.8061 10.4673 33.0589 10.9759C33.3118 11.4844 33.4382 12.0781 33.4382 12.7571C33.4382 13.4332 33.3118 14.0241 33.0589 14.5298C32.8061 15.0355 32.451 15.429 31.9936 15.7102C31.5362 15.9915 31.0007 16.1321 30.3871 16.1321ZM30.3913 15.0625C30.7891 15.0625 31.1186 14.9574 31.38 14.7472C31.6413 14.5369 31.8345 14.2571 31.9595 13.9077C32.0874 13.5582 32.1513 13.1733 32.1513 12.7528C32.1513 12.3352 32.0874 11.9517 31.9595 11.6023C31.8345 11.25 31.6413 10.9673 31.38 10.7543C31.1186 10.5412 30.7891 10.4347 30.3913 10.4347C29.9908 10.4347 29.6584 10.5412 29.3942 10.7543C29.1328 10.9673 28.9382 11.25 28.8104 11.6023C28.6854 11.9517 28.6229 12.3352 28.6229 12.7528C28.6229 13.1733 28.6854 13.5582 28.8104 13.9077C28.9382 14.2571 29.1328 14.5369 29.3942 14.7472C29.6584 14.9574 29.9908 15.0625 30.3913 15.0625ZM39.7653 11.0526L38.6104 11.2571C38.5621 11.1094 38.4854 10.9687 38.3803 10.8352C38.2781 10.7017 38.1388 10.5923 37.9627 10.5071C37.7866 10.4219 37.5664 10.3793 37.3022 10.3793C36.9414 10.3793 36.6403 10.4602 36.3988 10.6222C36.1573 10.7812 36.0366 10.9872 36.0366 11.2401C36.0366 11.4588 36.1175 11.6349 36.2795 11.7685C36.4414 11.902 36.7028 12.0114 37.0636 12.0966L38.1033 12.3352C38.7056 12.4744 39.1545 12.6889 39.4499 12.9787C39.7454 13.2685 39.8931 13.6449 39.8931 14.108C39.8931 14.5 39.7795 14.8494 39.5522 15.1562C39.3278 15.4602 39.0138 15.6989 38.6104 15.8722C38.2099 16.0455 37.7454 16.1321 37.217 16.1321C36.484 16.1321 35.886 15.9759 35.4229 15.6634C34.9599 15.348 34.6758 14.9006 34.5707 14.321L35.8022 14.1335C35.8789 14.4545 36.0366 14.6974 36.2752 14.8622C36.5138 15.0241 36.8249 15.1051 37.2085 15.1051C37.6261 15.1051 37.9599 15.0185 38.2099 14.8452C38.4599 14.669 38.5849 14.4545 38.5849 14.2017C38.5849 13.9972 38.5082 13.8253 38.3548 13.6861C38.2042 13.5469 37.9727 13.4418 37.6602 13.3707L36.5522 13.1278C35.9414 12.9886 35.4897 12.767 35.1971 12.4631C34.9073 12.1591 34.7624 11.7741 34.7624 11.3082C34.7624 10.9219 34.8704 10.5838 35.0863 10.294C35.3022 10.0043 35.6005 9.77841 35.9812 9.61648C36.3619 9.4517 36.7979 9.36932 37.2894 9.36932C37.9968 9.36932 38.5536 9.52273 38.9599 9.82955C39.3661 10.1335 39.6346 10.5412 39.7653 11.0526ZM45.3093 16H43.9116L47.0522 7.27273H48.5735L51.7141 16H50.3164L47.8491 8.85795H47.7809L45.3093 16ZM45.5437 12.5824H50.0778V13.6903H45.5437V12.5824ZM54.1463 12.1136V16H52.8722V9.45455H54.0952V10.5199H54.1761C54.3267 10.1733 54.5625 9.89489 54.8835 9.68466C55.2074 9.47443 55.6151 9.36932 56.1065 9.36932C56.5526 9.36932 56.9432 9.46307 57.2784 9.65057C57.6136 9.83523 57.8736 10.1108 58.0582 10.4773C58.2429 10.8437 58.3352 11.2969 58.3352 11.8366V16H57.0611V11.9901C57.0611 11.5156 56.9375 11.1449 56.6903 10.8778C56.4432 10.608 56.1037 10.473 55.6719 10.473C55.3764 10.473 55.1136 10.5369 54.8835 10.6648C54.6563 10.7926 54.4759 10.9801 54.3423 11.2273C54.2116 11.4716 54.1463 11.767 54.1463 12.1136ZM62.7884 18.5909C62.2685 18.5909 61.821 18.5227 61.446 18.3864C61.0739 18.25 60.7699 18.0696 60.5341 17.8452C60.2983 17.6207 60.1222 17.375 60.0057 17.108L61.1009 16.6562C61.1776 16.7812 61.2798 16.9134 61.4077 17.0526C61.5384 17.1946 61.7145 17.3153 61.9361 17.4148C62.1605 17.5142 62.4489 17.5639 62.8011 17.5639C63.2841 17.5639 63.6832 17.446 63.9986 17.2102C64.3139 16.9773 64.4716 16.6051 64.4716 16.0938V14.8068H64.3906C64.3139 14.946 64.2031 15.1009 64.0582 15.2713C63.9162 15.4418 63.7202 15.5895 63.4702 15.7145C63.2202 15.8395 62.8949 15.902 62.4943 15.902C61.9773 15.902 61.5114 15.7812 61.0966 15.5398C60.6847 15.2955 60.358 14.9361 60.1165 14.4616C59.8778 13.9844 59.7585 13.3977 59.7585 12.7017C59.7585 12.0057 59.8764 11.4091 60.1122 10.9119C60.3509 10.4148 60.6776 10.0341 61.0923 9.76989C61.5071 9.50284 61.9773 9.36932 62.5028 9.36932C62.9091 9.36932 63.2372 9.4375 63.4872 9.57386C63.7372 9.70739 63.9318 9.86364 64.071 10.0426C64.2131 10.2216 64.3224 10.3793 64.3991 10.5156H64.4929V9.45455H65.7415V16.1449C65.7415 16.7074 65.6108 17.169 65.3494 17.5298C65.0881 17.8906 64.7344 18.1577 64.2884 18.331C63.8452 18.5043 63.3452 18.5909 62.7884 18.5909ZM62.7756 14.8452C63.142 14.8452 63.4517 14.7599 63.7045 14.5895C63.9602 14.4162 64.1534 14.169 64.2841 13.848C64.4176 13.5241 64.4844 13.1364 64.4844 12.6847C64.4844 12.2443 64.419 11.8565 64.2884 11.5213C64.1577 11.1861 63.9659 10.9247 63.7131 10.7372C63.4602 10.5469 63.1477 10.4517 62.7756 10.4517C62.392 10.4517 62.0724 10.5511 61.8168 10.75C61.5611 10.946 61.3679 11.2131 61.2372 11.5511C61.1094 11.8892 61.0455 12.267 61.0455 12.6847C61.0455 13.1136 61.1108 13.4901 61.2415 13.8139C61.3722 14.1378 61.5653 14.3906 61.821 14.5724C62.0795 14.7543 62.3977 14.8452 62.7756 14.8452ZM70.2713 16.1321C69.6264 16.1321 69.071 15.9943 68.6051 15.7188C68.142 15.4403 67.7841 15.0497 67.5312 14.5469C67.2812 14.0412 67.1562 13.4489 67.1562 12.7699C67.1562 12.0994 67.2812 11.5085 67.5312 10.9972C67.7841 10.4858 68.1364 10.0866 68.5881 9.79972C69.0426 9.51278 69.5739 9.36932 70.1818 9.36932C70.5511 9.36932 70.9091 9.4304 71.2557 9.55256C71.6023 9.67472 71.9134 9.86648 72.1889 10.1278C72.4645 10.3892 72.6818 10.7287 72.8409 11.1463C73 11.5611 73.0795 12.0653 73.0795 12.6591V13.1108H67.8764V12.1562H71.831C71.831 11.821 71.7628 11.5241 71.6264 11.2656C71.4901 11.0043 71.2983 10.7983 71.0511 10.6477C70.8068 10.4972 70.5199 10.4219 70.1903 10.4219C69.8324 10.4219 69.5199 10.5099 69.2528 10.6861C68.9886 10.8594 68.7841 11.0866 68.6392 11.3679C68.4972 11.6463 68.4261 11.9489 68.4261 12.2756V13.0213C68.4261 13.4588 68.5028 13.831 68.6562 14.1378C68.8125 14.4446 69.0298 14.679 69.3082 14.8409C69.5866 15 69.9119 15.0795 70.2841 15.0795C70.5256 15.0795 70.7457 15.0455 70.9446 14.9773C71.1435 14.9062 71.3153 14.8011 71.4602 14.6619C71.6051 14.5227 71.7159 14.3509 71.7926 14.1463L72.9986 14.3636C72.902 14.7187 72.7287 15.0298 72.4787 15.2969C72.2315 15.5611 71.9205 15.767 71.5455 15.9148C71.1733 16.0597 70.7486 16.1321 70.2713 16.1321ZM75.7674 7.27273V16H74.4933V7.27273H75.7674ZM80.3026 16.1321C79.6577 16.1321 79.1023 15.9943 78.6364 15.7188C78.1733 15.4403 77.8153 15.0497 77.5625 14.5469C77.3125 14.0412 77.1875 13.4489 77.1875 12.7699C77.1875 12.0994 77.3125 11.5085 77.5625 10.9972C77.8153 10.4858 78.1676 10.0866 78.6193 9.79972C79.0739 9.51278 79.6051 9.36932 80.2131 9.36932C80.5824 9.36932 80.9403 9.4304 81.2869 9.55256C81.6335 9.67472 81.9446 9.86648 82.2202 10.1278C82.4957 10.3892 82.7131 10.7287 82.8722 11.1463C83.0313 11.5611 83.1108 12.0653 83.1108 12.6591V13.1108H77.9077V12.1562H81.8622C81.8622 11.821 81.794 11.5241 81.6577 11.2656C81.5213 11.0043 81.3295 10.7983 81.0824 10.6477C80.8381 10.4972 80.5511 10.4219 80.2216 10.4219C79.8636 10.4219 79.5511 10.5099 79.2841 10.6861C79.0199 10.8594 78.8153 11.0866 78.6705 11.3679C78.5284 11.6463 78.4574 11.9489 78.4574 12.2756V13.0213C78.4574 13.4588 78.5341 13.831 78.6875 14.1378C78.8438 14.4446 79.0611 14.679 79.3395 14.8409C79.6179 15 79.9432 15.0795 80.3153 15.0795C80.5568 15.0795 80.777 15.0455 80.9759 14.9773C81.1747 14.9062 81.3466 14.8011 81.4915 14.6619C81.6364 14.5227 81.7472 14.3509 81.8239 14.1463L83.0298 14.3636C82.9332 14.7187 82.7599 15.0298 82.5099 15.2969C82.2628 15.5611 81.9517 15.767 81.5767 15.9148C81.2045 16.0597 80.7798 16.1321 80.3026 16.1321ZM89.4293 11.0526L88.2745 11.2571C88.2262 11.1094 88.1495 10.9687 88.0444 10.8352C87.9421 10.7017 87.8029 10.5923 87.6268 10.5071C87.4506 10.4219 87.2305 10.3793 86.9663 10.3793C86.6055 10.3793 86.3043 10.4602 86.0629 10.6222C85.8214 10.7812 85.7006 10.9872 85.7006 11.2401C85.7006 11.4588 85.7816 11.6349 85.9435 11.7685C86.1055 11.902 86.3668 12.0114 86.7276 12.0966L87.7674 12.3352C88.3697 12.4744 88.8185 12.6889 89.114 12.9787C89.4094 13.2685 89.5572 13.6449 89.5572 14.108C89.5572 14.5 89.4435 14.8494 89.2163 15.1562C88.9918 15.4602 88.6779 15.6989 88.2745 15.8722C87.8739 16.0455 87.4094 16.1321 86.881 16.1321C86.1481 16.1321 85.5501 15.9759 85.087 15.6634C84.6239 15.348 84.3398 14.9006 84.2347 14.321L85.4663 14.1335C85.543 14.4545 85.7006 14.6974 85.9393 14.8622C86.1779 15.0241 86.489 15.1051 86.8725 15.1051C87.2901 15.1051 87.6239 15.0185 87.8739 14.8452C88.1239 14.669 88.2489 14.4545 88.2489 14.2017C88.2489 13.9972 88.1722 13.8253 88.0188 13.6861C87.8683 13.5469 87.6367 13.4418 87.3242 13.3707L86.2163 13.1278C85.6055 12.9886 85.1538 12.767 84.8612 12.4631C84.5714 12.1591 84.4265 11.7741 84.4265 11.3082C84.4265 10.9219 84.5344 10.5838 84.7504 10.294C84.9663 10.0043 85.2646 9.77841 85.6452 9.61648C86.0259 9.4517 86.462 9.36932 86.9535 9.36932C87.6609 9.36932 88.2177 9.52273 88.6239 9.82955C89.0302 10.1335 89.2987 10.5412 89.4293 11.0526Z" fill="black"/>
<defs>
<filter id="filter0_d_251_196" x="242" y="51" width="36" height="36" filterUnits="userSpaceOnUse" color-interpolation-filters="sRGB">
<feFlood flood-opacity="0" result="BackgroundImageFix"/>
<feColorMatrix in="SourceAlpha" type="matrix" values="0 0 0 0 0 0 0 0 0 0 0 0 0 0 0 0 0 0 127 0" result="hardAlpha"/>
<feMorphology radius="5" operator="dilate" in="SourceAlpha" result="effect1_dropShadow_251_196"/>
<feOffset/>
<feGaussianBlur stdDeviation="3"/>
<feComposite in2="hardAlpha" operator="out"/>
<feColorMatrix type="matrix" values="0 0 0 0 1 0 0 0 0 1 0 0 0 0 1 0 0 0 1 0"/>
<feBlend mode="normal" in2="BackgroundImageFix" result="effect1_dropShadow_251_196"/>
<feBlend mode="normal" in="SourceGraphic" in2="effect1_dropShadow_251_196" result="shape"/>
</filter>
</defs>
</svg>
