<svg width="514" height="122" viewBox="0 0 514 122" fill="none" xmlns="http://www.w3.org/2000/svg">
<g filter="url(#filter0_d_251_196)">
<circle cx="260" cy="69" r="7" fill="white"/>
</g>
<line x1="12" y1="22.5" x2="193" y2="22.5" stroke="white" stroke-width="3"/>
<line x1="191.869" y1="21.777" x2="260.868" y2="70.777" stroke="white" stroke-width="3"/>
<path d="M10 0H86C99.2548 0 110 10.7452 110 24H10V0Z" fill="white"/>
<path d="M20.9588 16V7.27273H24.0696C24.7486 7.27273 25.3111 7.39631 25.7571 7.64347C26.2031 7.89062 26.5369 8.22869 26.7585 8.65767C26.9801 9.08381 27.0909 9.56392 27.0909 10.098C27.0909 10.6349 26.9787 11.1179 26.7543 11.5469C26.5327 11.973 26.1974 12.3111 25.7486 12.5611C25.3026 12.8082 24.7415 12.9318 24.0653 12.9318H21.9261V11.8153H23.946C24.375 11.8153 24.723 11.7415 24.9901 11.5938C25.2571 11.4432 25.4531 11.2386 25.5781 10.9801C25.7031 10.7216 25.7656 10.4276 25.7656 10.098C25.7656 9.76847 25.7031 9.47585 25.5781 9.22017C25.4531 8.96449 25.2557 8.7642 24.9858 8.61932C24.7188 8.47443 24.3665 8.40199 23.929 8.40199H22.2756V16H20.9588ZM30.3786 16.1449C29.9638 16.1449 29.5888 16.0682 29.2536 15.9148C28.9183 15.7585 28.6527 15.5327 28.4567 15.2372C28.2635 14.9418 28.1669 14.5795 28.1669 14.1506C28.1669 13.7812 28.2379 13.4773 28.38 13.2386C28.522 13 28.7138 12.8111 28.9553 12.6719C29.1967 12.5327 29.4666 12.4276 29.7649 12.3565C30.0632 12.2855 30.3672 12.2315 30.6768 12.1946C31.0689 12.1491 31.3871 12.1122 31.6314 12.0838C31.8757 12.0526 32.0533 12.0028 32.1641 11.9347C32.2749 11.8665 32.3303 11.7557 32.3303 11.6023V11.5724C32.3303 11.2003 32.2251 10.9119 32.0149 10.7074C31.8075 10.5028 31.4979 10.4006 31.0859 10.4006C30.657 10.4006 30.3189 10.4957 30.0717 10.6861C29.8274 10.8736 29.6584 11.0824 29.5646 11.3125L28.3672 11.0398C28.5092 10.642 28.7166 10.321 28.9893 10.0767C29.2649 9.82955 29.5817 9.65057 29.9396 9.53977C30.2976 9.42614 30.674 9.36932 31.0689 9.36932C31.3303 9.36932 31.6072 9.40057 31.8999 9.46307C32.1953 9.52273 32.4709 9.63352 32.7266 9.79545C32.9851 9.95739 33.1967 10.1889 33.3615 10.4901C33.5263 10.7884 33.6087 11.1761 33.6087 11.6534V16H32.3643V15.1051H32.3132C32.2308 15.2699 32.1072 15.4318 31.9425 15.5909C31.7777 15.75 31.5661 15.8821 31.3075 15.9872C31.049 16.0923 30.7393 16.1449 30.3786 16.1449ZM30.6555 15.1222C31.0078 15.1222 31.3089 15.0526 31.5589 14.9134C31.8118 14.7741 32.0036 14.5923 32.1342 14.3679C32.2678 14.1406 32.3345 13.8977 32.3345 13.6392V12.7955C32.2891 12.8409 32.201 12.8835 32.0703 12.9233C31.9425 12.9602 31.7962 12.9929 31.6314 13.0213C31.4666 13.0469 31.3061 13.071 31.1499 13.0938C30.9936 13.1136 30.8629 13.1307 30.7578 13.1449C30.5107 13.1761 30.2848 13.2287 30.0803 13.3026C29.8786 13.3764 29.7166 13.483 29.5945 13.6222C29.4751 13.7585 29.4155 13.9403 29.4155 14.1676C29.4155 14.483 29.532 14.7216 29.7649 14.8835C29.9979 15.0426 30.2947 15.1222 30.6555 15.1222ZM35.3058 16V9.45455H36.5373V10.4943H36.6055C36.7248 10.142 36.935 9.86506 37.2362 9.66335C37.5401 9.45881 37.8839 9.35653 38.2674 9.35653C38.3469 9.35653 38.4407 9.35937 38.5487 9.36506C38.6594 9.37074 38.7461 9.37784 38.8086 9.38636V10.6051C38.7575 10.5909 38.6665 10.5753 38.5359 10.5582C38.4052 10.5384 38.2745 10.5284 38.1438 10.5284C37.8427 10.5284 37.5742 10.5923 37.3384 10.7202C37.1055 10.8452 36.9208 11.0199 36.7844 11.2443C36.6481 11.4659 36.5799 11.7187 36.5799 12.0028V16H35.3058ZM39.9112 16V9.45455H41.1854V16H39.9112ZM40.5547 8.4446C40.3331 8.4446 40.1428 8.37074 39.9837 8.22301C39.8274 8.07244 39.7493 7.89347 39.7493 7.68608C39.7493 7.47585 39.8274 7.29687 39.9837 7.14915C40.1428 6.99858 40.3331 6.9233 40.5547 6.9233C40.7763 6.9233 40.9652 6.99858 41.1214 7.14915C41.2805 7.29687 41.3601 7.47585 41.3601 7.68608C41.3601 7.89347 41.2805 8.07244 41.1214 8.22301C40.9652 8.37074 40.7763 8.4446 40.5547 8.4446ZM47.8043 11.0526L46.6495 11.2571C46.6012 11.1094 46.5245 10.9687 46.4194 10.8352C46.3171 10.7017 46.1779 10.5923 46.0018 10.5071C45.8256 10.4219 45.6055 10.3793 45.3413 10.3793C44.9805 10.3793 44.6793 10.4602 44.4379 10.6222C44.1964 10.7812 44.0756 10.9872 44.0756 11.2401C44.0756 11.4588 44.1566 11.6349 44.3185 11.7685C44.4805 11.902 44.7418 12.0114 45.1026 12.0966L46.1424 12.3352C46.7447 12.4744 47.1935 12.6889 47.489 12.9787C47.7844 13.2685 47.9322 13.6449 47.9322 14.108C47.9322 14.5 47.8185 14.8494 47.5913 15.1562C47.3668 15.4602 47.0529 15.6989 46.6495 15.8722C46.2489 16.0455 45.7844 16.1321 45.256 16.1321C44.5231 16.1321 43.9251 15.9759 43.462 15.6634C42.9989 15.348 42.7148 14.9006 42.6097 14.321L43.8413 14.1335C43.918 14.4545 44.0756 14.6974 44.3143 14.8622C44.5529 15.0241 44.864 15.1051 45.2475 15.1051C45.6651 15.1051 45.9989 15.0185 46.2489 14.8452C46.4989 14.669 46.6239 14.4545 46.6239 14.2017C46.6239 13.9972 46.5472 13.8253 46.3938 13.6861C46.2433 13.5469 46.0117 13.4418 45.6992 13.3707L44.5913 13.1278C43.9805 12.9886 43.5288 12.767 43.2362 12.4631C42.9464 12.1591 42.8015 11.7741 42.8015 11.3082C42.8015 10.9219 42.9094 10.5838 43.1254 10.294C43.3413 10.0043 43.6396 9.77841 44.0202 9.61648C44.4009 9.4517 44.837 9.36932 45.3285 9.36932C46.0359 9.36932 46.5927 9.52273 46.9989 9.82955C47.4052 10.1335 47.6737 10.5412 47.8043 11.0526Z" fill="black"/>
<defs>
<filter id="filter0_d_251_196" x="242" y="51" width="36" height="36" filterUnits="userSpaceOnUse" color-interpolation-filters="sRGB">
<feFlood flood-opacity="0" result="BackgroundImageFix"/>
<feColorMatrix in="SourceAlpha" type="matrix" values="0 0 0 0 0 0 0 0 0 0 0 0 0 0 0 0 0 0 127 0" result="hardAlpha"/>
<feMorphology radius="5" operator="dilate" in="SourceAlpha" result="effect1_dropShadow_251_196"/>
<feOffset/>
<feGaussianBlur stdDeviation="3"/>
<feComposite in2="hardAlpha" operator="out"/>
<feColorMatrix type="matrix" values="0 0 0 0 1 0 0 0 0 1 0 0 0 0 1 0 0 0 1 0"/>
<feBlend mode="normal" in2="BackgroundImageFix" result="effect1_dropShadow_251_196"/>
<feBlend mode="normal" in="SourceGraphic" in2="effect1_dropShadow_251_196" result="shape"/>
</filter>
</defs>
</svg>
